<svg class="img-fluid" xmlns="http://www.w3.org/2000/svg" style="transform:matrix(4.82681,0,0,4.82681,-5,162);transform-origin:50% 50% 0;cursor:move;transition:none 0s ease 0s" width="640" height="640"><g fill="#1F2F38" style="transform:none"><path d="M390 618c0-9-21-13-67-14-38 0-83-2-100-4l-33-3-2-239c-1-131-2-255-2-275-1-37 1-38 44-50 57-15 182-7 235 17 51 22 118 95 135 146 17 50 18 178 1 227-9 25-19 37-32 37-14 0-19 7-19 29 0 39-21 54-70 49-37-3-40-2-45 27-11 55-16 65-31 65-8 0-14-6-14-12zM70 493c-37-58-43-89-39-201 4-78 8-95 34-138 27-43 35-49 68-52l37-3v441h-35c-31 0-39-6-65-47z"/></g><path d="M398 629c-8-5-8-25 1-71 22-112 26-117 66-70 22 25 25 26 40 11 16-16 12-19-55-55-104-54-197-154-145-154 27 0 65-47 65-79 0-49-37-83-98-89l-52-5-2 239c-3 230-4 239-23 242-37 5-117-68-153-138C-54 271 59 50 270 12c187-34 361 106 362 291 0 82-16 134-63 196-22 28-39 55-39 60s10 20 21 35c12 15 20 29 18 30-8 7-161 11-171 5zM140 319c0-212-3-219-55-116-29 60-34 156-10 213 14 35 53 94 61 94 2 0 4-86 4-191zm430 75c17-49 14-135-5-181-21-51-80-111-132-134-47-22-152-27-195-10-16 6-28 12-28 14 0 1 34 4 74 5 41 1 86 6 99 11 36 14 67 51 67 79 0 29-34 88-58 101-15 9-13 14 18 46 34 36 127 105 142 105 3 0 12-16 18-36z" fill="#F6F6F6" style="transform:none"/></svg>